<svg width="44" height="49" viewBox="0 0 44 49" fill="none" xmlns="http://www.w3.org/2000/svg">
<path d="M7.77557 13.9434C7.77557 21.6441 14.3591 27.8867 22.4804 27.8867C30.6017 27.8867 37.1852 21.6441 37.1852 13.9434C37.1852 6.24266 30.6017 0 22.4804 0C14.3591 0 7.77557 6.24266 7.77557 13.9434Z" fill="url(#paint0_linear_850_624)"/>
<path d="M0.951172 48.2956C0.951172 42.8826 3.21892 37.6912 7.25554 33.8636C11.2922 30.0361 16.767 27.8857 22.4756 27.8857C28.1843 27.8857 33.6591 30.0361 37.6957 33.8636C41.7323 37.6912 44.0001 42.8826 44.0001 48.2956L0.951172 48.2956Z" fill="url(#paint1_linear_850_624)"/>
<defs>
<linearGradient id="paint0_linear_850_624" x1="22.4755" y1="27.8857" x2="22.4755" y2="68.7054" gradientUnits="userSpaceOnUse">
<stop stop-color="#12327D"/>
<stop offset="1" stop-color="#8871D8"/>
</linearGradient>
<linearGradient id="paint1_linear_850_624" x1="22.4755" y1="27.8857" x2="22.4755" y2="68.7054" gradientUnits="userSpaceOnUse">
<stop stop-color="#12327D"/>
<stop offset="1" stop-color="#8871D8"/>
</linearGradient>
</defs>
</svg>
